<svg xmlns="http://www.w3.org/2000/svg" xmlns:xlink="http://www.w3.org/1999/xlink" width="1500" zoomAndPan="magnify" viewBox="0 0 1125 1124.99995" height="1500" preserveAspectRatio="xMidYMid meet" version="1.0"><defs><clipPath id="18f7f1dbb9"><path d="M 118 265 L 988 265 L 988 879 L 118 879 Z M 118 265 " clip-rule="nonzero"/></clipPath><clipPath id="a7d10c9c2c"><path d="M -242.835938 102.609375 L 1085.253906 -206.113281 L 1393.976562 1121.976562 L 65.886719 1430.699219 Z M -242.835938 102.609375 " clip-rule="nonzero"/></clipPath><clipPath id="599f7ce4bc"><path d="M -242.835938 102.609375 L 1085.253906 -206.113281 L 1393.976562 1121.976562 L 65.886719 1430.699219 Z M -242.835938 102.609375 " clip-rule="nonzero"/></clipPath></defs><g clip-path="url(#18f7f1dbb9)"><g clip-path="url(#a7d10c9c2c)"><g clip-path="url(#599f7ce4bc)"><path fill="#ffffff" d="M 166.9375 387.566406 C 165.230469 389.699219 164.523438 393.152344 164.839844 397.851562 C 165.382812 405.902344 165.730469 419.671875 165.542969 425.601562 C 165.472656 427.8125 165.574219 429.789062 165.765625 429.996094 C 165.960938 430.199219 166.253906 432.183594 166.414062 434.402344 C 166.878906 440.769531 167.492188 447.121094 168.25 453.460938 C 168.625 456.566406 168.949219 460.644531 168.972656 462.519531 C 168.996094 464.394531 169.25 468.796875 169.53125 472.300781 C 169.816406 475.808594 170.207031 480.722656 170.394531 483.222656 C 170.582031 485.726562 171.082031 489.242188 171.5 491.042969 C 172.503906 495.367188 172.082031 496.585938 168.96875 498.355469 C 167.535156 499.167969 165.914062 500.214844 165.367188 500.683594 C 159.984375 505.257812 159.925781 505.300781 158.207031 505.699219 C 157.332031 505.902344 156.503906 506.402344 156.363281 506.808594 C 156.226562 507.21875 155.535156 507.6875 154.824219 507.851562 C 154.117188 508.015625 152.460938 509.015625 151.152344 510.074219 C 149.839844 511.128906 148.382812 512.085938 147.910156 512.195312 C 147.433594 512.304688 146.601562 512.769531 146.054688 513.226562 C 144.398438 514.609375 140.851562 516.570312 139.390625 516.910156 C 138.636719 517.085938 137.902344 517.5625 137.765625 517.96875 C 137.628906 518.378906 136.78125 518.882812 135.882812 519.089844 C 134.253906 519.46875 134.25 519.464844 133.390625 514.371094 C 132.917969 511.566406 132.476562 508.210938 132.410156 506.910156 C 132.148438 501.734375 132.042969 497.03125 132.167969 496.027344 C 132.238281 495.449219 132.164062 494.089844 132 493.007812 C 131.578125 490.210938 131.527344 483.746094 131.917969 482.253906 C 132.097656 481.558594 132.074219 480.25 131.867188 479.351562 C 131.65625 478.449219 131.621094 477.144531 131.792969 476.453125 C 131.960938 475.757812 132.175781 473.945312 132.265625 472.421875 C 132.359375 470.894531 132.53125 469.007812 132.648438 468.230469 C 133.683594 461.375 133.320312 459.796875 130.121094 457.351562 C 127.800781 455.574219 127.273438 455.464844 124.359375 456.140625 C 120.105469 457.128906 119.722656 458.15625 119.3125 469.621094 C 119.253906 471.328125 119.0625 474.449219 118.886719 476.554688 C 118.5 481.265625 118.421875 484.375 118.679688 484.933594 C 118.789062 485.167969 118.730469 486.679688 118.546875 488.296875 C 118.367188 489.914062 118.464844 492.296875 118.761719 493.589844 C 119.058594 494.882812 119.183594 497.507812 119.042969 499.421875 C 118.332031 508.90625 120.839844 524.242188 123.757812 528.296875 C 125.609375 530.867188 130.035156 534.125 131.28125 533.835938 C 131.78125 533.71875 132.773438 533.8125 133.480469 534.046875 C 135.085938 534.574219 143.757812 530.078125 152.839844 524.003906 C 153.492188 523.566406 155.621094 522.148438 157.578125 520.84375 C 159.53125 519.542969 161.347656 518.167969 161.617188 517.789062 C 161.886719 517.410156 162.574219 516.988281 163.152344 516.855469 C 163.726562 516.722656 165.269531 515.746094 166.582031 514.691406 C 168.835938 512.875 172.191406 511.582031 173.132812 512.167969 C 173.367188 512.316406 173.617188 513.71875 173.6875 515.285156 C 173.753906 516.855469 174.191406 521.277344 174.65625 525.117188 C 175.382812 531.132812 176.488281 544.375 176.8125 550.9375 C 176.949219 553.769531 178.96875 567.523438 180.425781 575.558594 C 181.597656 582.015625 181.585938 582.347656 180.125 584.003906 C 179.285156 584.953125 178.210938 585.828125 177.730469 585.945312 C 177.253906 586.066406 174.800781 587.867188 172.28125 589.949219 C 169.761719 592.027344 167.179688 593.851562 166.546875 594 C 165.914062 594.144531 164.949219 594.640625 164.402344 595.097656 C 160.351562 598.476562 158.316406 600.015625 157.722656 600.152344 C 157.164062 600.28125 145.5 609.445312 141.546875 612.859375 C 138.234375 615.71875 135.414062 613.40625 134.457031 607.039062 C 133.390625 599.921875 133.097656 596.007812 133.570312 595.203125 C 133.8125 594.792969 133.773438 593.4375 133.488281 592.195312 C 133.199219 590.957031 133.027344 588.980469 133.101562 587.808594 C 133.210938 586.0625 133.300781 584.316406 133.375 582.566406 C 133.449219 580.859375 133.675781 579.074219 133.886719 578.597656 C 134.09375 578.121094 134.003906 575.828125 133.6875 573.5 C 133.152344 569.570312 132.945312 569.140625 130.863281 567.582031 C 126.207031 564.09375 121.15625 567.9375 120.445312 575.515625 C 120.273438 577.355469 120.214844 579.210938 120.320312 579.644531 C 120.617188 580.894531 120.074219 593.386719 119.65625 594.894531 C 119.449219 595.644531 119.441406 597.492188 119.636719 599 C 119.832031 600.511719 120.183594 603.851562 120.417969 606.429688 C 121.339844 616.664062 123.574219 621.871094 128.648438 625.601562 C 131.558594 627.746094 133.589844 628.476562 136.855469 628.546875 C 142.140625 628.667969 142.390625 628.570312 148.253906 624.148438 C 149.613281 623.125 151.019531 622.21875 151.386719 622.132812 C 151.75 622.050781 152.492188 621.582031 153.03125 621.09375 C 153.570312 620.609375 155.84375 618.816406 158.078125 617.113281 C 160.3125 615.40625 163.1875 613.207031 164.460938 612.222656 C 165.738281 611.242188 167.832031 609.667969 169.117188 608.730469 C 170.402344 607.789062 173.410156 605.503906 175.800781 603.648438 C 178.1875 601.792969 180.804688 599.808594 181.609375 599.238281 C 182.417969 598.667969 183.523438 597.824219 184.070312 597.363281 C 184.617188 596.90625 185.429688 596.4375 185.878906 596.320312 C 186.328125 596.203125 188.234375 594.835938 190.121094 593.28125 C 192.007812 591.726562 193.78125 590.402344 194.066406 590.335938 C 194.578125 590.21875 203.800781 583.167969 205.667969 581.46875 C 206.207031 580.976562 207.09375 580.472656 207.640625 580.34375 C 208.183594 580.21875 209.078125 579.738281 209.621094 579.273438 C 210.921875 578.171875 216.101562 574.246094 217.605469 573.222656 C 218.253906 572.78125 220.527344 571.058594 222.65625 569.402344 C 224.785156 567.742188 226.820312 566.316406 227.175781 566.234375 C 227.535156 566.148438 229.3125 564.8125 231.125 563.261719 C 232.941406 561.714844 234.828125 560.351562 235.324219 560.238281 C 235.824219 560.121094 237.21875 559.125 238.425781 558.019531 C 241 555.667969 242.121094 555.96875 243.0625 559.265625 C 245.007812 566.097656 251.34375 575.429688 256.222656 578.648438 C 257.714844 579.632812 260.292969 580.550781 261.949219 580.691406 C 264.617188 580.914062 265.140625 580.777344 266.457031 579.492188 C 268.480469 577.523438 267.800781 572.972656 264.941406 569.351562 C 263.84375 567.957031 262.875 566.519531 262.792969 566.15625 C 262.707031 565.789062 262.273438 565.039062 261.828125 564.492188 C 258.015625 559.777344 256.773438 557.871094 255.738281 555.148438 C 255.082031 553.421875 254.300781 551.757812 254.003906 551.449219 C 253.707031 551.144531 253.207031 550.03125 252.890625 548.976562 C 252.570312 547.921875 251.867188 545.929688 251.328125 544.554688 C 248.960938 538.535156 246.242188 529.238281 246.523438 528.113281 C 246.960938 526.351562 245.855469 522.117188 244.511719 520.421875 C 243.398438 519.015625 239.585938 518.226562 236.902344 518.851562 C 235.289062 519.226562 232.492188 524.046875 232.890625 525.757812 C 233.070312 526.523438 232.953125 527.410156 232.632812 527.730469 C 232.253906 528.101562 232.785156 531.042969 234.125 536.035156 L 236.207031 543.757812 L 234.472656 545.460938 C 233.519531 546.394531 232.367188 547.246094 231.910156 547.355469 C 231.457031 547.460938 229.203125 549.027344 226.910156 550.832031 C 224.613281 552.636719 221.683594 554.882812 220.398438 555.828125 C 219.113281 556.769531 217.070312 558.359375 215.855469 559.359375 C 214.640625 560.355469 213.113281 561.296875 212.453125 561.453125 C 211.792969 561.605469 211.144531 562.0625 211.003906 562.472656 C 210.867188 562.878906 210.183594 563.347656 209.488281 563.507812 C 208.789062 563.671875 207.773438 564.179688 207.226562 564.636719 C 206.679688 565.097656 205.570312 565.933594 204.761719 566.492188 C 203.953125 567.054688 201.554688 568.917969 199.433594 570.632812 C 195.023438 574.195312 193.222656 574.46875 193.273438 571.5625 C 193.289062 570.535156 192.890625 566.558594 192.382812 562.714844 C 190.976562 552.070312 190.210938 545.628906 189.648438 539.75 C 189.371094 536.804688 188.796875 531.710938 188.378906 528.421875 C 187.964844 525.136719 187.402344 520.191406 187.132812 517.433594 C 186.867188 514.675781 186.457031 510.671875 186.226562 508.535156 C 185.652344 503.28125 184.390625 504.429688 205.078125 491.382812 C 207.207031 490.039062 209.597656 488.40625 210.386719 487.761719 C 214.339844 484.519531 217.503906 482.34375 218.65625 482.078125 C 219.722656 481.828125 220.039062 482.222656 220.554688 484.441406 C 221.332031 487.800781 224.976562 492.574219 227.21875 493.175781 C 229.667969 493.835938 233.257812 492.832031 234.269531 491.207031 C 235.039062 489.96875 234.730469 488.035156 231.410156 473.355469 C 229.035156 462.84375 227.835938 456.347656 228.089844 455.394531 C 228.3125 454.574219 228.285156 453.003906 228.03125 451.902344 C 227.773438 450.804688 227.757812 449.328125 227.996094 448.621094 C 228.601562 446.816406 225.941406 443.300781 223.082031 442.121094 C 219.546875 440.667969 214.742188 443.054688 214.171875 446.542969 C 213.875 448.375 215.195312 460.996094 216.136719 465.261719 C 216.898438 468.726562 216.429688 470.289062 214.488281 470.738281 C 213.839844 470.890625 212.738281 471.503906 212.035156 472.101562 C 209.355469 474.382812 208.730469 474.8125 207.769531 475.035156 C 207.226562 475.164062 206.335938 475.648438 205.789062 476.113281 C 205.246094 476.578125 203.570312 477.617188 202.0625 478.425781 C 199.371094 479.867188 198.40625 480.460938 195.488281 482.492188 C 194.679688 483.050781 192.40625 484.515625 190.433594 485.742188 C 188.460938 486.964844 186.386719 488.292969 185.820312 488.6875 C 184.972656 489.285156 184.710938 489.054688 184.316406 487.367188 C 184.054688 486.246094 183.765625 483.125 183.671875 480.4375 C 183.578125 477.75 182.90625 470.765625 182.183594 464.917969 C 181.460938 459.070312 180.96875 453.648438 181.085938 452.867188 C 181.203125 452.089844 181.132812 449.183594 180.929688 446.410156 C 180.722656 443.636719 180.53125 440.605469 180.496094 439.675781 C 180.464844 438.742188 180.265625 436.632812 180.054688 434.992188 C 179.84375 433.347656 179.765625 431.214844 179.875 430.246094 C 179.984375 429.28125 179.976562 426.515625 179.859375 424.097656 C 179.421875 415.332031 179.355469 409.625 179.644531 405.300781 C 179.722656 404.128906 179.640625 402.550781 179.464844 401.792969 C 179.289062 401.039062 179.394531 400.171875 179.699219 399.867188 C 180.007812 399.5625 180.113281 398.675781 179.9375 397.890625 C 179.757812 397.109375 179.761719 395.097656 179.941406 393.417969 C 180.382812 389.3125 178.742188 386.734375 174.988281 385.640625 C 171.492188 384.621094 168.777344 385.273438 166.9375 387.566406 M 324.1875 372.671875 C 322.835938 373.324219 321.789062 375.082031 319.859375 379.933594 C 318.457031 383.453125 317.078125 387.46875 316.792969 388.851562 C 316.507812 390.230469 315.589844 393.054688 314.753906 395.121094 C 313.917969 397.191406 312.402344 402.15625 311.382812 406.160156 C 310.367188 410.164062 308.804688 415.453125 307.917969 417.917969 C 307.027344 420.378906 306.117188 423.050781 305.886719 423.859375 C 305.65625 424.664062 305.058594 426.648438 304.558594 428.269531 C 304.058594 429.886719 303.273438 432.738281 302.8125 434.597656 C 302.355469 436.460938 301.636719 438.433594 301.21875 438.984375 C 300.800781 439.535156 300.53125 440.3125 300.625 440.714844 C 300.71875 441.121094 299.988281 443.242188 299.007812 445.4375 C 298.027344 447.632812 296.886719 450.667969 296.46875 452.179688 C 296.054688 453.695312 295.535156 455.4375 295.316406 456.050781 C 293.878906 460.101562 291.757812 467.25 291.859375 467.699219 C 291.929688 467.996094 291.523438 468.902344 290.960938 469.710938 C 290.398438 470.523438 289.988281 471.414062 290.054688 471.6875 C 290.117188 471.964844 289.4375 474.152344 288.546875 476.546875 C 287.652344 478.945312 286.867188 481.617188 286.796875 482.484375 C 286.730469 483.355469 285.980469 485.609375 285.132812 487.492188 C 284.28125 489.378906 283.644531 491.164062 283.710938 491.464844 C 283.78125 491.761719 283.378906 492.671875 282.8125 493.480469 C 282.25 494.292969 281.871094 495.304688 281.96875 495.730469 C 282.066406 496.152344 281.722656 497.117188 281.199219 497.871094 C 280.675781 498.621094 279.894531 500.648438 279.460938 502.371094 C 279.027344 504.09375 277.273438 508.660156 275.566406 512.519531 C 273.859375 516.382812 272.507812 519.730469 272.5625 519.964844 C 272.617188 520.195312 272.007812 521.476562 271.210938 522.808594 C 270.414062 524.136719 269.714844 526.671875 269.660156 528.441406 C 269.5625 531.519531 269.65625 531.734375 271.917969 533.601562 C 276.867188 537.695312 279.714844 536.742188 282.492188 530.0625 C 283.554688 527.507812 284.703125 524.949219 285.039062 524.378906 C 285.378906 523.808594 285.589844 523.074219 285.515625 522.746094 C 285.4375 522.417969 285.835938 521.488281 286.402344 520.675781 C 286.964844 519.867188 287.355469 518.878906 287.273438 518.488281 C 287.191406 518.097656 288.316406 515.035156 289.78125 511.6875 C 291.242188 508.339844 292.394531 505.375 292.335938 505.097656 C 292.179688 504.320312 296.449219 493.078125 297.054688 492.679688 C 297.347656 492.484375 297.53125 492.09375 297.464844 491.8125 C 297.304688 491.121094 299.910156 483.136719 300.84375 481.457031 C 301.25 480.722656 301.496094 479.75 301.390625 479.289062 C 301.285156 478.832031 302.105469 476.40625 303.214844 473.898438 C 304.324219 471.386719 305.46875 468.15625 305.757812 466.71875 C 306.050781 465.277344 306.664062 463.394531 307.121094 462.539062 C 308.058594 460.78125 312.089844 448.855469 311.953125 448.257812 C 311.902344 448.046875 312.167969 447.3125 312.539062 446.632812 C 312.914062 445.953125 313.703125 443.484375 314.296875 441.144531 C 314.890625 438.804688 315.691406 436.3125 316.078125 435.601562 C 316.886719 434.109375 317.957031 430.59375 319.867188 423.132812 C 320.613281 420.214844 321.757812 416.78125 322.40625 415.503906 C 323.058594 414.226562 323.84375 412.023438 324.152344 410.605469 L 324.714844 408.027344 L 328.484375 410.785156 C 333.277344 414.292969 340.070312 418.589844 344.574219 420.964844 C 346.503906 421.980469 352.613281 425.453125 358.152344 428.683594 C 363.691406 431.910156 369.023438 434.851562 370.003906 435.21875 C 370.984375 435.585938 372.628906 436.347656 373.65625 436.914062 C 379.5 440.132812 383.574219 442.265625 385.324219 443.03125 C 386.417969 443.507812 389.046875 444.722656 391.167969 445.734375 C 393.289062 446.746094 395.984375 447.964844 397.160156 448.445312 C 398.332031 448.921875 402.121094 450.824219 405.574219 452.667969 C 423.363281 462.164062 426.425781 462.941406 430.019531 458.875 C 431.324219 457.394531 431.484375 456.636719 430.957031 454.382812 C 430.226562 451.265625 428.449219 449.835938 420.910156 446.308594 C 418.359375 445.117188 416.226562 443.945312 416.171875 443.707031 C 416.117188 443.46875 412.871094 441.75 408.960938 439.882812 C 405.050781 438.019531 399.742188 435.375 397.167969 434.003906 C 394.59375 432.636719 389.882812 430.226562 386.695312 428.652344 C 383.507812 427.074219 378.527344 424.363281 375.628906 422.625 C 372.730469 420.886719 370.132812 419.519531 369.855469 419.582031 C 368.6875 419.855469 330.058594 396.746094 329.796875 395.621094 C 329.691406 395.171875 330.417969 392.527344 331.414062 389.746094 C 334.132812 382.140625 334.445312 380.335938 333.644531 376.882812 C 333.074219 374.4375 332.503906 373.488281 331.132812 372.695312 C 329.039062 371.492188 326.65625 371.480469 324.1875 372.671875 M 746.703125 303.261719 C 745.144531 304.792969 744.976562 305.398438 745.5 307.640625 C 745.832031 309.074219 745.855469 310.304688 745.550781 310.375 C 745.246094 310.445312 745.273438 313.285156 745.609375 316.683594 C 745.949219 320.082031 746.203125 323.945312 746.171875 325.269531 C 746.066406 330.074219 746.203125 331.871094 747.136719 338.035156 C 747.65625 341.484375 747.996094 344.789062 747.890625 345.378906 C 747.785156 345.96875 748.390625 349.820312 749.238281 353.941406 C 750.722656 361.175781 750.726562 361.472656 749.355469 362.5625 C 747.585938 363.96875 743.441406 367.082031 740.355469 369.332031 C 739.070312 370.265625 737.507812 371.484375 736.882812 372.039062 C 736.261719 372.589844 734.347656 374.28125 732.628906 375.796875 C 728.304688 379.617188 725.089844 383.542969 724.679688 385.5 C 723.976562 388.84375 725.140625 391.390625 728.101562 392.976562 C 730.859375 394.457031 734.363281 394.386719 734.882812 392.839844 C 735.019531 392.429688 735.675781 391.972656 736.335938 391.816406 C 737 391.664062 737.582031 391.269531 737.632812 390.941406 C 737.898438 389.148438 748.425781 378.070312 750.265625 377.640625 C 751.332031 377.394531 751.800781 381.921875 750.90625 383.832031 C 750.402344 384.90625 750.050781 386.039062 750.125 386.355469 C 750.289062 387.074219 747.871094 396.640625 747.128906 398.195312 C 746.828125 398.832031 746.210938 400.972656 745.757812 402.957031 C 745.308594 404.941406 744.394531 407.769531 743.730469 409.242188 C 743.066406 410.710938 742.09375 413.609375 741.574219 415.679688 C 741.054688 417.75 740.289062 419.890625 739.878906 420.429688 C 739.46875 420.972656 739.195312 421.691406 739.273438 422.027344 C 739.355469 422.367188 738.839844 424.121094 738.128906 425.921875 C 737.421875 427.726562 736.882812 429.390625 736.9375 429.617188 C 736.992188 429.847656 736.425781 431.582031 735.683594 433.46875 C 734.007812 437.742188 734.886719 443.035156 737.671875 445.390625 C 740.265625 447.589844 744.554688 446.6875 747.730469 443.269531 C 749.046875 441.847656 750.539062 439.949219 751.039062 439.046875 C 751.539062 438.148438 752.21875 437.347656 752.542969 437.269531 C 752.871094 437.195312 754.207031 435.960938 755.511719 434.53125 C 756.820312 433.097656 758.15625 431.863281 758.480469 431.789062 C 758.808594 431.714844 759.46875 430.945312 759.945312 430.082031 C 760.929688 428.3125 762.421875 427.703125 762.84375 428.894531 C 762.996094 429.328125 764.191406 433.898438 765.496094 439.046875 C 768.03125 449.023438 769.621094 453.585938 770.695312 453.945312 C 771.058594 454.070312 771.546875 454.980469 771.777344 455.96875 C 772.320312 458.304688 776.929688 461.605469 779.15625 461.253906 C 782.480469 460.730469 783.574219 460.097656 785.117188 457.796875 C 786.675781 455.472656 786.675781 451.804688 785.113281 451.277344 C 783.242188 450.648438 772.6875 416.839844 773.800781 415.046875 C 774.109375 414.554688 774.21875 413.542969 774.046875 412.796875 C 773.734375 411.460938 777.917969 404.03125 779.140625 403.742188 C 779.839844 403.578125 787.335938 391.992188 792.964844 382.375 C 796.433594 376.445312 798.40625 372.542969 802.917969 362.6875 C 803.972656 360.386719 805.785156 356.96875 806.949219 355.097656 C 808.113281 353.222656 808.992188 351.394531 808.910156 351.03125 C 808.824219 350.667969 809.046875 350.304688 809.402344 350.222656 C 809.761719 350.140625 810.289062 351.085938 810.578125 352.328125 C 811.078125 354.484375 811.289062 356.570312 812.398438 370.375 C 813.015625 378.035156 818.648438 397.402344 820.78125 399.191406 C 821.128906 399.484375 822.15625 401.246094 823.0625 403.105469 C 823.96875 404.960938 824.984375 406.726562 825.320312 407.023438 C 825.65625 407.320312 826.847656 409.15625 827.972656 411.097656 C 830.84375 416.046875 838.375 421.6875 844.269531 423.296875 C 846.683594 423.957031 849.164062 424.382812 849.773438 424.238281 C 850.386719 424.097656 851.25 424.207031 851.691406 424.480469 C 852.832031 425.191406 864.410156 422.578125 865.109375 421.449219 C 865.421875 420.953125 866.203125 420.421875 866.847656 420.269531 C 868.527344 419.882812 873 416.265625 876.582031 412.40625 C 878.269531 410.582031 879.9375 409.023438 880.289062 408.945312 C 880.871094 408.808594 883.929688 403.742188 887.707031 396.644531 C 888.558594 395.042969 889.269531 393.003906 889.285156 392.109375 C 889.320312 390.042969 887.035156 386.972656 885.367188 386.839844 C 883.308594 386.675781 880.097656 388.386719 879.113281 390.171875 C 877.203125 393.644531 868.019531 402.699219 862.214844 406.832031 C 861.40625 407.40625 859.167969 408.601562 857.238281 409.484375 C 854.046875 410.949219 853.453125 411.023438 850.65625 410.328125 C 844.941406 408.910156 839.378906 403.988281 835.382812 396.820312 C 834.523438 395.277344 833.652344 393.738281 832.773438 392.207031 C 831.921875 390.738281 828.628906 380.347656 827.757812 376.378906 C 826.890625 372.449219 823.382812 349.414062 822.925781 344.6875 C 822.300781 338.171875 820.683594 330.804688 819.332031 328.34375 C 817.742188 325.4375 812.574219 322.140625 810.410156 322.644531 C 807.992188 323.203125 802.8125 327.730469 802.574219 329.488281 C 802.445312 330.441406 802.085938 331.46875 801.785156 331.773438 C 801.480469 332.074219 800.800781 334.179688 800.277344 336.445312 C 799.757812 338.710938 798.796875 341.621094 798.144531 342.910156 C 797.492188 344.199219 796.289062 346.945312 795.472656 349.015625 C 791.957031 357.917969 782.886719 375.835938 776.761719 385.984375 C 773.121094 392.015625 769.898438 397.003906 769.601562 397.074219 C 769.304688 397.144531 768.566406 394.46875 767.957031 391.132812 C 766.957031 385.65625 766.613281 382.332031 766.214844 374.417969 C 766.140625 373.007812 766.710938 370.769531 767.480469 369.4375 C 768.296875 368.015625 768.707031 366.300781 768.464844 365.269531 C 768.242188 364.308594 768.324219 363.105469 768.644531 362.589844 C 769.421875 361.339844 766.878906 356.980469 764.347656 355.226562 L 762.5 353.945312 L 761.464844 345.300781 C 760.894531 340.542969 760.375 335.128906 760.3125 333.261719 C 760.246094 331.398438 759.871094 326.941406 759.476562 323.359375 C 759.082031 319.777344 758.972656 316.628906 759.238281 316.367188 C 759.503906 316.101562 759.527344 315.046875 759.289062 314.019531 C 759.046875 312.988281 759.125 311.878906 759.460938 311.546875 C 760.59375 310.417969 757.257812 303.238281 754.816406 301.554688 C 752.695312 300.09375 749.179688 300.832031 746.703125 303.261719 M 969.375 269.347656 C 967.746094 270.4375 965.777344 271.484375 964.996094 271.664062 C 964.214844 271.847656 963.464844 272.332031 963.324219 272.742188 C 963.1875 273.148438 962.652344 273.582031 962.132812 273.699219 C 961.617188 273.820312 960.085938 274.765625 958.730469 275.800781 C 957.378906 276.835938 955.1875 278.308594 953.859375 279.070312 C 952.53125 279.832031 951 280.828125 950.453125 281.285156 C 949.90625 281.742188 948.867188 282.253906 948.144531 282.421875 C 947.421875 282.589844 946.382812 283.097656 945.832031 283.550781 C 944.085938 285.003906 938.964844 288.125 936.410156 289.300781 C 931.792969 291.425781 930.257812 292.230469 929.710938 292.828125 C 929.414062 293.15625 927.941406 294.105469 926.445312 294.941406 C 924.945312 295.777344 923.191406 296.839844 922.550781 297.304688 C 920.792969 298.570312 914.386719 301.945312 911.890625 302.917969 C 910.683594 303.386719 908.648438 304.558594 907.367188 305.515625 C 906.085938 306.472656 903 308.140625 900.507812 309.222656 C 898.015625 310.304688 895.882812 311.464844 895.769531 311.804688 C 895.65625 312.140625 894.941406 312.5625 894.1875 312.738281 C 892.878906 313.042969 889.910156 314.644531 887.34375 316.433594 C 886.515625 316.996094 885.660156 317.523438 884.785156 318.011719 C 882.511719 319.257812 881.425781 321.851562 882.054688 324.542969 C 882.707031 327.363281 884.648438 328.828125 889.367188 330.0625 C 892.363281 330.847656 892.4375 330.832031 894.5625 329.105469 C 895.75 328.140625 898.296875 326.664062 900.222656 325.824219 C 902.148438 324.984375 904.835938 323.402344 906.199219 322.304688 C 907.558594 321.207031 909.105469 320.210938 909.636719 320.085938 C 910.753906 319.824219 914.4375 317.714844 915.890625 316.496094 C 916.4375 316.039062 917.457031 315.535156 918.152344 315.371094 C 918.851562 315.210938 919.535156 314.742188 919.671875 314.335938 C 919.808594 313.925781 920.617188 313.429688 921.46875 313.234375 C 922.316406 313.035156 923.109375 312.578125 923.234375 312.21875 C 923.355469 311.859375 924.222656 311.214844 925.164062 310.792969 C 929.5 308.835938 936.484375 304.960938 938.128906 303.605469 C 939.125 302.777344 940.460938 301.980469 941.097656 301.835938 C 941.738281 301.6875 942.371094 301.230469 942.507812 300.824219 C 942.644531 300.414062 943.378906 299.9375 944.132812 299.761719 C 945.816406 299.371094 948.792969 297.644531 953.78125 294.171875 C 957.789062 291.375 959.042969 290.691406 959.554688 291.007812 C 959.867188 291.203125 959.679688 291.765625 959.140625 292.257812 C 958.601562 292.75 958.242188 293.507812 958.339844 293.941406 C 958.441406 294.375 957.089844 297.984375 955.332031 301.957031 C 951.714844 310.144531 948.789062 317.539062 948.925781 318.140625 C 948.980469 318.363281 948.429688 320.058594 947.703125 321.902344 C 946.976562 323.75 945.925781 326.972656 945.367188 329.066406 C 944.402344 332.628906 943.421875 336.1875 942.425781 339.742188 C 941.371094 343.519531 940.667969 347.304688 940.863281 348.144531 C 941.058594 348.988281 941.078125 350.246094 940.90625 350.9375 C 940.140625 354.042969 939.972656 356.15625 940.042969 361.898438 C 940.230469 377.515625 941.691406 384.128906 947.796875 397.011719 C 948.28125 398.027344 949.296875 399.683594 950.0625 400.6875 C 950.824219 401.695312 951.535156 402.875 951.632812 403.308594 C 951.734375 403.742188 952.960938 405.410156 954.355469 407.015625 C 961.765625 415.527344 971.792969 421.082031 978.734375 420.515625 C 981.191406 420.3125 981.886719 419.949219 983.460938 418.046875 C 984.972656 416.21875 985.203125 415.390625 984.746094 413.464844 C 984.066406 410.589844 983.953125 410.488281 978.738281 408.148438 C 969.96875 404.210938 964.171875 398.882812 960.289062 391.1875 C 958.382812 387.414062 954.007812 368.609375 953.914062 363.800781 C 953.875 361.8125 953.828125 359.828125 953.769531 357.84375 C 953.730469 356.625 953.917969 355.410156 954.1875 355.140625 C 954.460938 354.875 954.578125 354.214844 954.453125 353.679688 C 954.25 352.8125 955.5625 345.453125 956.589844 341.691406 C 956.800781 340.914062 957.578125 337.964844 958.3125 335.136719 C 960.742188 325.792969 965.847656 311.46875 968.167969 307.472656 C 968.683594 306.585938 969.152344 305.523438 969.210938 305.113281 C 969.265625 304.707031 970.042969 302.882812 970.933594 301.0625 C 980.058594 282.460938 981.230469 280.359375 982.867188 279.613281 C 986.023438 278.183594 988.636719 272.472656 986.691406 271.261719 C 986.171875 270.9375 985.601562 270.042969 985.421875 269.269531 C 985.242188 268.496094 984.144531 267.277344 982.988281 266.554688 C 981.113281 265.386719 980.40625 265.359375 976.605469 266.300781 C 974.113281 266.917969 971.097656 268.1875 969.375 269.347656 M 686.578125 341.625 C 684.632812 342.535156 681.546875 347.121094 662.5625 377.289062 C 653.367188 391.90625 645.253906 404.660156 644.539062 405.625 C 640.121094 411.605469 633.953125 422.332031 633.371094 425.046875 C 632.4375 429.40625 633.035156 431.246094 636.925781 436.046875 C 640.980469 441.046875 645.480469 444.167969 654.753906 448.410156 C 658.585938 450.164062 663.804688 452.621094 666.351562 453.871094 C 668.898438 455.121094 671.234375 456.105469 671.539062 456.058594 C 671.847656 456.007812 673.65625 456.808594 675.558594 457.832031 C 677.460938 458.855469 680.082031 459.921875 681.378906 460.207031 C 682.679688 460.488281 685.074219 461.355469 686.703125 462.125 C 688.332031 462.898438 690.785156 463.910156 692.15625 464.371094 C 694.894531 465.292969 703.121094 470.480469 705.214844 472.601562 C 705.972656 473.367188 707.15625 473.800781 707.972656 473.609375 C 708.761719 473.425781 709.65625 473.527344 709.957031 473.832031 C 711.011719 474.890625 712.78125 473.847656 714.347656 471.242188 C 715.714844 468.96875 715.820312 468.167969 715.132812 465.207031 C 714.46875 462.347656 713.894531 461.433594 711.597656 459.566406 C 710.09375 458.339844 708.511719 457.210938 708.085938 457.054688 C 707.371094 456.789062 698.875 452.820312 696.191406 451.492188 C 695.535156 451.167969 694.523438 450.800781 693.949219 450.675781 C 693.375 450.554688 691.351562 449.738281 689.457031 448.867188 C 685.042969 446.839844 675.253906 442.933594 674.828125 443.03125 C 674.328125 443.148438 659.320312 436.417969 658.707031 435.800781 C 658.40625 435.5 656.394531 434.484375 654.230469 433.550781 C 651.03125 432.164062 649.988281 431.300781 648.65625 428.9375 L 647.015625 426.03125 L 649.027344 423.183594 C 652.125 418.785156 660.777344 405.5625 670.164062 390.867188 C 679.964844 375.53125 689.582031 361.230469 691.375 359.335938 C 692.054688 358.617188 693.796875 356.195312 695.25 353.949219 C 697.75 350.089844 697.851562 349.695312 697.128906 346.605469 C 695.859375 341.167969 691.730469 339.21875 686.578125 341.625 M 572.054688 376.128906 C 571.25 376.710938 570.0625 377.5625 569.417969 378.019531 C 568.773438 378.476562 567.253906 379.230469 566.046875 379.695312 C 563.78125 380.570312 560.746094 382.066406 556.542969 384.390625 C 555.210938 385.128906 553.425781 386.050781 552.574219 386.4375 C 551.726562 386.824219 550.503906 387.535156 549.863281 388.011719 C 549.222656 388.492188 546.367188 390.097656 543.515625 391.578125 C 540.664062 393.0625 538.113281 394.59375 537.847656 394.980469 C 537.578125 395.367188 536.78125 395.820312 536.078125 395.984375 C 534.304688 396.394531 530.433594 398.710938 526.0625 401.972656 C 524.921875 402.824219 522.804688 404.003906 521.359375 404.59375 C 519.914062 405.183594 518.632812 405.957031 518.515625 406.308594 C 518.394531 406.664062 517.496094 407.140625 516.519531 407.367188 C 515.539062 407.59375 514.527344 408.113281 514.261719 408.515625 C 514 408.921875 513.109375 409.515625 512.28125 409.832031 C 511.453125 410.152344 510.160156 411.679688 509.414062 413.226562 C 508.109375 415.917969 508.113281 416.148438 509.476562 418.339844 C 511.316406 421.304688 512.890625 422.460938 515.714844 422.941406 C 517.726562 423.28125 518.421875 423.066406 521.46875 421.15625 C 525.121094 418.867188 527.214844 417.417969 528.855469 416.042969 C 529.402344 415.582031 530.53125 415.046875 531.371094 414.851562 C 532.207031 414.65625 533.046875 414.253906 533.234375 413.953125 C 533.730469 413.152344 537.832031 410.636719 539.164062 410.316406 C 539.792969 410.164062 540.753906 409.660156 541.296875 409.199219 C 541.84375 408.734375 544.324219 407.195312 546.816406 405.78125 C 549.308594 404.367188 551.875 402.84375 552.523438 402.394531 C 554.894531 400.757812 556.125 400.027344 558.234375 399.011719 C 559.417969 398.441406 562.109375 397.054688 564.222656 395.925781 C 566.332031 394.796875 568.265625 394 568.515625 394.15625 C 568.761719 394.3125 567.121094 398.582031 564.867188 403.644531 C 562.609375 408.703125 560.820312 413.082031 560.886719 413.375 C 560.953125 413.664062 560.550781 414.566406 559.984375 415.378906 C 559.421875 416.191406 559.027344 417.128906 559.105469 417.464844 C 559.183594 417.800781 558.878906 418.976562 558.433594 420.078125 C 557.988281 421.179688 556.96875 424.539062 556.171875 427.546875 C 554.105469 435.324219 553.078125 438.765625 552.570312 439.628906 C 552.324219 440.042969 552.253906 440.933594 552.410156 441.609375 C 552.570312 442.285156 552.332031 443.742188 551.886719 444.84375 C 550.941406 447.179688 550.667969 453.328125 551.132812 461.859375 C 551.410156 466.992188 551.800781 468.851562 553.691406 473.984375 C 554.917969 477.320312 556.476562 480.960938 557.160156 482.078125 C 563.449219 492.414062 568.265625 497.578125 576.363281 502.664062 C 579.964844 504.929688 583.164062 506.722656 583.476562 506.652344 C 583.785156 506.578125 584.9375 506.871094 586.035156 507.296875 C 589.660156 508.707031 593.644531 508.695312 595.636719 507.269531 C 597.105469 506.21875 597.359375 505.515625 597.164062 503.058594 C 596.867188 499.320312 595.429688 497.867188 590.066406 495.859375 C 586.421875 494.5 578.570312 489.445312 578.300781 488.289062 C 578.238281 488.019531 577.507812 487.324219 576.679688 486.742188 C 571.378906 483.019531 565.535156 468.5 565.160156 458.132812 C 564.988281 453.347656 565.21875 449.175781 565.699219 448.265625 C 565.914062 447.859375 565.914062 446.765625 565.699219 445.839844 C 565.484375 444.910156 565.488281 443.820312 565.710938 443.410156 C 565.929688 443 566.261719 441.554688 566.441406 440.199219 C 566.625 438.839844 567.027344 437.207031 567.335938 436.570312 C 567.644531 435.9375 568.523438 433.117188 569.289062 430.308594 C 570.054688 427.496094 571.039062 424.296875 571.480469 423.199219 C 571.917969 422.097656 572.214844 420.929688 572.136719 420.601562 C 572.0625 420.273438 572.59375 419.117188 573.324219 418.039062 C 574.050781 416.957031 574.742188 415.4375 574.851562 414.65625 C 574.964844 413.878906 576.894531 409.054688 579.140625 403.933594 C 581.886719 397.671875 584.417969 393.117188 586.875 390.007812 C 588.882812 387.46875 590.632812 385.074219 590.761719 384.691406 C 590.890625 384.304688 590.757812 382.703125 590.464844 381.128906 C 589.4375 375.636719 583.507812 372.609375 576.9375 374.226562 C 575.054688 374.691406 572.859375 375.546875 572.054688 376.128906 M 354.335938 455.085938 C 354.15625 455.375 352.820312 456.132812 351.363281 456.765625 C 346.769531 458.773438 345.054688 459.617188 343.84375 460.46875 C 343.199219 460.921875 341.441406 461.960938 339.9375 462.773438 C 338.433594 463.585938 336.160156 465.0625 334.886719 466.054688 C 333.617188 467.046875 330.785156 468.761719 328.59375 469.859375 C 320.859375 473.75 320.089844 474.226562 318.09375 476.390625 C 316.980469 477.589844 315.710938 478.65625 315.265625 478.761719 C 312.949219 479.296875 313.015625 487.195312 315.34375 488.53125 C 319.765625 491.066406 323.367188 490.324219 329.148438 485.683594 C 331.027344 484.175781 332.816406 482.882812 333.128906 482.8125 C 333.4375 482.738281 334.765625 481.816406 336.074219 480.757812 C 337.386719 479.703125 338.992188 478.714844 339.644531 478.5625 C 340.789062 478.296875 341.375 477.902344 344.101562 475.582031 C 344.804688 474.984375 346.386719 474.261719 347.617188 473.972656 C 348.851562 473.6875 349.972656 473.121094 350.109375 472.710938 C 350.246094 472.304688 351.199219 471.773438 352.226562 471.535156 C 353.257812 471.296875 354.210938 470.765625 354.347656 470.359375 C 354.484375 469.949219 355.476562 469.414062 356.546875 469.164062 C 357.621094 468.914062 358.949219 468.316406 359.496094 467.832031 C 360.046875 467.351562 361.992188 466.535156 363.820312 466.023438 C 366.515625 465.265625 367.261719 464.753906 367.792969 463.308594 C 368.777344 460.628906 367.664062 456.5625 365.570312 455.164062 C 362.953125 453.417969 355.40625 453.367188 354.335938 455.085938 M 363.265625 482.984375 C 361.589844 484.269531 360.285156 485.609375 360.367188 485.960938 C 360.503906 486.550781 359.6875 487.375 355.523438 490.863281 C 353.386719 492.648438 350.289062 494.898438 347.773438 496.488281 C 345.308594 498.042969 344.042969 498.914062 341.292969 500.953125 C 340.167969 501.785156 337.671875 503.464844 335.738281 504.6875 C 333.808594 505.914062 331.839844 507.472656 331.363281 508.15625 C 330.890625 508.839844 330.058594 509.503906 329.515625 509.628906 C 328.976562 509.753906 327.6875 510.554688 326.65625 511.410156 C 325.625 512.261719 323.917969 513.394531 322.863281 513.925781 C 318.128906 516.316406 309.605469 522.175781 308.628906 523.714844 C 306.179688 527.574219 308.992188 532.753906 314.265625 534.09375 C 317.378906 534.886719 318.832031 534.214844 325.257812 529.015625 C 334.078125 521.878906 335.671875 520.6875 338.355469 519.199219 C 341.597656 517.398438 343.546875 515.8125 344.226562 514.414062 C 344.539062 513.777344 344.855469 513.488281 344.933594 513.769531 C 345.203125 514.757812 344.066406 518.226562 342.941406 519.839844 C 341.582031 521.789062 337.804688 530.066406 337.964844 530.746094 C 338.023438 531.007812 337.203125 532.773438 336.140625 534.667969 C 335.074219 536.558594 334.226562 538.195312 334.25 538.300781 C 334.277344 538.410156 333.277344 541.449219 332.035156 545.054688 C 326.8125 560.191406 326.582031 566.730469 331.132812 570.492188 C 334.132812 572.972656 336.890625 573.542969 341.355469 572.613281 C 345.3125 571.785156 353.914062 566.984375 355.488281 564.726562 C 355.929688 564.085938 356.726562 563.460938 357.257812 563.339844 C 357.785156 563.214844 359.242188 562.300781 360.492188 561.308594 C 361.742188 560.3125 363.84375 558.855469 365.164062 558.070312 C 366.484375 557.28125 369.210938 555.378906 371.21875 553.839844 C 373.230469 552.300781 375.28125 550.945312 375.777344 550.832031 C 376.277344 550.714844 376.804688 550.257812 376.953125 549.816406 C 377.101562 549.375 378.3125 548.210938 379.640625 547.226562 C 381.804688 545.628906 396.496094 533.921875 397.398438 533.074219 C 397.601562 532.886719 400.371094 534.972656 403.550781 537.710938 C 409.242188 542.605469 417.003906 548.082031 417.9375 547.867188 C 418.199219 547.804688 419.914062 548.328125 421.75 549.03125 C 428.265625 551.523438 433.675781 548.40625 432.394531 542.894531 C 431.90625 540.800781 431.28125 540.171875 427.730469 538.210938 C 421.210938 534.613281 414.363281 530.027344 414.152344 529.117188 C 414.042969 528.660156 413.714844 528.339844 413.417969 528.410156 C 413.121094 528.476562 412.277344 527.828125 411.542969 526.964844 C 410.808594 526.101562 409.125 524.371094 407.800781 523.121094 C 406.476562 521.871094 405.351562 520.675781 405.300781 520.460938 C 405.121094 519.679688 397.679688 513.871094 394.746094 512.222656 C 393.078125 511.285156 390.441406 510.40625 388.886719 510.273438 C 386.363281 510.054688 385.859375 510.214844 384.113281 511.796875 C 381.375 514.28125 381.820312 516.894531 385.800781 521.679688 C 389.253906 525.832031 389.203125 526.285156 385.015625 528.765625 C 383.695312 529.550781 382.019531 530.617188 381.292969 531.136719 C 380.367188 531.796875 379.4375 532.453125 378.503906 533.105469 C 377.695312 533.671875 376.441406 534.558594 375.714844 535.078125 C 374.988281 535.597656 373.3125 536.644531 371.984375 537.40625 C 370.65625 538.167969 368.523438 539.578125 367.242188 540.535156 C 365.058594 542.167969 363.824219 543.078125 358.339844 547.09375 C 357.175781 547.945312 356.003906 548.789062 354.828125 549.617188 C 353.84375 550.304688 352.867188 550.996094 351.890625 551.691406 C 350.867188 552.417969 349.835938 553.140625 348.804688 553.855469 C 347.992188 554.414062 346.921875 555.207031 346.417969 555.621094 C 345.917969 556.035156 345.082031 556.230469 344.558594 556.054688 C 342.820312 555.46875 343.53125 552.183594 347.765625 541.292969 C 349 538.113281 349.957031 535.28125 349.890625 535 C 349.824219 534.714844 350.136719 534 350.585938 533.410156 C 351.035156 532.820312 352.269531 530.398438 353.332031 528.035156 C 356.699219 520.53125 356.261719 521.359375 364.183594 507.441406 C 366.617188 503.167969 366.210938 503.769531 370.648438 497.847656 C 372.800781 494.972656 375.234375 491.9375 376.058594 491.105469 C 379.199219 487.910156 376.855469 482.183594 371.757812 480.597656 C 368.789062 479.671875 366.875 480.210938 363.265625 482.984375 M 475.546875 456.5 C 472.808594 457.757812 467.035156 461.460938 466.519531 462.289062 C 466.339844 462.578125 465.664062 462.941406 465.019531 463.089844 C 463.851562 463.363281 462.769531 464.261719 457.199219 469.597656 C 455.570312 471.15625 454.070312 472.472656 453.863281 472.519531 C 453.65625 472.570312 451.363281 474.886719 448.765625 477.675781 C 446.171875 480.460938 442.84375 483.863281 441.378906 485.230469 C 436.429688 489.847656 435.9375 492.324219 439.085938 496.699219 C 442.023438 500.777344 446.195312 500.242188 451.097656 495.15625 C 452.886719 493.300781 454.648438 491.183594 455.007812 490.453125 C 455.371094 489.722656 456.78125 488.265625 458.144531 487.214844 C 459.511719 486.167969 460.730469 484.992188 460.859375 484.609375 C 460.988281 484.226562 463.097656 482.296875 465.546875 480.324219 C 467.992188 478.351562 471.15625 475.773438 472.574219 474.597656 C 478.84375 469.40625 483.902344 467.363281 488.042969 468.351562 C 491.53125 469.183594 491.804688 470.003906 490.625 476.101562 C 490.300781 477.769531 490.105469 479.425781 490.1875 479.78125 C 490.425781 480.804688 487.964844 487.828125 485.75 492.453125 C 484.632812 494.78125 480.746094 501.617188 477.109375 507.648438 L 470.5 518.613281 L 471.476562 522.804688 C 472.3125 526.402344 472.613281 526.953125 473.617188 526.71875 C 474.257812 526.570312 475.167969 526.6875 475.640625 526.980469 C 476.113281 527.277344 477.78125 527.25 479.351562 526.925781 C 482.152344 526.347656 482.316406 526.160156 487.671875 517.484375 C 493.148438 508.613281 495.789062 503.765625 498.234375 498.097656 C 498.957031 496.425781 499.746094 494.90625 499.984375 494.726562 C 500.226562 494.546875 500.363281 494.144531 500.289062 493.832031 C 500.21875 493.519531 500.632812 492.03125 501.214844 490.519531 C 501.796875 489.011719 502.652344 485.953125 503.113281 483.726562 C 503.574219 481.5 504.101562 479.109375 504.285156 478.414062 C 504.464844 477.71875 504.480469 476.578125 504.320312 475.878906 C 504.15625 475.183594 504.273438 474.363281 504.582031 474.0625 C 504.886719 473.757812 504.535156 470.917969 503.796875 467.75 C 503.058594 464.582031 502.125 461.875 501.714844 461.738281 C 501.308594 461.601562 500.855469 460.976562 500.710938 460.355469 C 500.320312 458.671875 494.917969 455.292969 490.394531 453.90625 C 488.382812 453.289062 478.945312 454.9375 475.546875 456.5 M 756.449219 408.148438 C 754.644531 411.636719 753.175781 416.609375 753.882812 416.847656 C 754.90625 417.191406 759.621094 409.050781 759.085938 407.855469 C 758.457031 406.449219 757.257812 406.582031 756.449219 408.148438 M 246.894531 646.3125 C 245.953125 647.238281 244.875 649.503906 244.433594 651.496094 C 244.003906 653.441406 243.507812 655.601562 243.335938 656.292969 C 243.164062 656.988281 243.125 658 243.25 658.546875 C 243.378906 659.089844 243.332031 660.105469 243.148438 660.800781 C 242.570312 663.007812 242.214844 671.742188 242.632812 673.535156 C 242.855469 674.488281 242.820312 675.476562 242.558594 675.738281 C 242.292969 676 242.203125 677.546875 242.351562 679.171875 C 242.503906 680.800781 242.441406 683.207031 242.214844 684.523438 C 241.664062 687.695312 241.679688 692.957031 242.246094 695.394531 C 242.824219 697.875 241.085938 700.554688 237.613281 702.542969 C 236.1875 703.355469 234.492188 704.390625 233.84375 704.832031 C 233.195312 705.277344 231 706.417969 228.964844 707.367188 C 226.929688 708.316406 225.042969 709.402344 224.773438 709.78125 C 224.503906 710.15625 223.628906 710.617188 222.828125 710.804688 C 222.03125 710.992188 221.265625 711.476562 221.125 711.882812 C 220.988281 712.292969 220.03125 712.824219 219 713.0625 C 217.96875 713.300781 216.511719 713.917969 215.769531 714.425781 C 215.023438 714.9375 213.179688 716.007812 211.675781 716.8125 C 210.167969 717.613281 208.492188 718.648438 207.949219 719.117188 C 207.402344 719.582031 206.386719 720.097656 205.691406 720.257812 C 204.992188 720.421875 204.308594 720.886719 204.171875 721.292969 C 204.035156 721.703125 203.316406 722.175781 202.578125 722.347656 C 200.757812 722.773438 198.894531 726.527344 199.40625 728.734375 C 200.351562 732.804688 206.691406 736.105469 209.28125 733.878906 C 209.847656 733.390625 211.535156 732.3125 213.035156 731.484375 C 214.535156 730.65625 216.019531 729.671875 216.335938 729.300781 C 216.648438 728.929688 218.414062 727.921875 220.257812 727.058594 C 222.097656 726.199219 224.65625 724.710938 225.9375 723.757812 C 228.121094 722.132812 229.5625 721.300781 236.03125 717.925781 C 237.457031 717.179688 239.066406 716.191406 239.613281 715.722656 C 241.0625 714.484375 243.832031 713.992188 244.054688 714.933594 C 244.15625 715.382812 244.191406 716.78125 244.125 718.046875 C 244 720.488281 245.078125 730.195312 246.316406 737.816406 C 246.730469 740.355469 247.5 745.53125 248.03125 749.324219 C 248.558594 753.117188 249.210938 756.542969 249.480469 756.9375 C 249.960938 757.648438 243.8125 765.941406 237.863281 772.597656 C 230.078125 781.308594 219.101562 797.820312 213.730469 808.898438 C 211.902344 812.664062 209.710938 817.058594 208.859375 818.65625 C 208.007812 820.257812 207.382812 821.859375 207.464844 822.21875 C 207.550781 822.578125 207.265625 823.332031 206.839844 823.894531 C 204.949219 826.378906 202.527344 842.179688 202.609375 851.476562 C 202.648438 856.09375 204.878906 865.546875 206.507812 867.992188 C 209.378906 872.304688 211.675781 874.515625 214.585938 875.765625 C 220.351562 878.246094 221.796875 878.582031 225.101562 878.214844 C 227.917969 877.902344 228.976562 877.390625 232.378906 874.6875 C 234.570312 872.949219 237.347656 870.488281 238.558594 869.214844 C 239.765625 867.945312 241.527344 866.277344 242.472656 865.503906 C 244.769531 863.625 252.761719 854.117188 255.558594 849.933594 C 256.792969 848.089844 258.128906 846.347656 258.53125 846.066406 C 259.578125 845.332031 266.40625 834.648438 267.941406 831.347656 C 268.65625 829.808594 269.496094 828.632812 269.804688 828.738281 C 270.117188 828.84375 270.898438 830.273438 271.546875 831.917969 C 276.644531 844.871094 277.015625 845.546875 280.332031 847.886719 C 284.269531 850.65625 287.992188 850.476562 290.242188 847.40625 L 291.734375 845.367188 L 289.953125 841.074219 C 288.972656 838.714844 287.273438 834.914062 286.175781 832.625 C 285.082031 830.339844 283.578125 826.601562 282.835938 824.320312 C 282.089844 822.042969 280.796875 819.082031 279.960938 817.746094 C 278.121094 814.816406 278.433594 813.410156 282.382812 806.726562 C 283.769531 804.375 284.867188 802.289062 284.824219 802.09375 C 284.660156 801.390625 288.441406 791.488281 289.304688 790.347656 C 290.046875 789.371094 293.605469 780.953125 295.015625 776.835938 C 295.242188 776.179688 295.878906 774.300781 296.4375 772.652344 C 298.007812 768.023438 298.21875 767.417969 298.964844 765.496094 C 299.347656 764.507812 300.429688 761.234375 301.371094 758.214844 C 302.316406 755.199219 303.496094 751.542969 303.992188 750.085938 C 304.585938 748.335938 305.132812 746.570312 305.640625 744.792969 C 306.042969 743.335938 306.789062 741.859375 307.292969 741.519531 C 309.347656 740.128906 316.058594 740.914062 322.246094 743.261719 C 325.15625 744.367188 331.078125 749.394531 334.082031 753.304688 C 338.15625 758.609375 342.519531 769.964844 341.964844 773.824219 C 341.808594 774.914062 341.765625 776.867188 341.867188 778.15625 C 342.421875 785.03125 341.898438 791.628906 340.128906 800.097656 C 339.550781 802.863281 338.925781 806.238281 338.742188 807.597656 C 338.554688 808.957031 338.257812 810.410156 338.082031 810.828125 C 337.90625 811.242188 337.304688 813.230469 336.746094 815.238281 C 336.1875 817.25 335.097656 820.632812 334.320312 822.753906 C 333.542969 824.878906 332.953125 826.804688 333.003906 827.03125 C 333.058594 827.261719 332.492188 828.722656 331.746094 830.285156 C 331.003906 831.847656 330.164062 834.035156 329.886719 835.148438 C 329.605469 836.265625 328.628906 838.492188 327.710938 840.101562 C 326.792969 841.710938 325.882812 843.582031 325.683594 844.257812 C 325.488281 844.933594 323.761719 848.101562 321.847656 851.300781 C 318.710938 856.535156 316.609375 862.371094 317.101562 864.480469 C 317.457031 866.019531 320.164062 868.003906 322.648438 868.542969 C 325.015625 869.058594 325.273438 868.992188 327.121094 867.363281 C 329.597656 865.179688 334.019531 857.28125 340.316406 843.785156 C 341.445312 841.367188 343.066406 838.074219 343.914062 836.472656 C 344.765625 834.867188 345.414062 833.359375 345.359375 833.121094 C 345.300781 832.878906 346.179688 830.25 347.304688 827.28125 C 350.089844 819.941406 354.113281 805.296875 354.769531 800.109375 C 354.867188 799.335938 355.097656 797.898438 355.273438 796.917969 C 355.871094 793.640625 356.164062 788.5625 355.980469 784.625 C 355.878906 782.484375 355.78125 779.351562 355.757812 777.664062 C 355.652344 769.335938 351.363281 752.738281 348.445312 749.359375 C 348.011719 748.855469 346.867188 747.242188 345.910156 745.773438 C 343.476562 742.042969 335.867188 734.898438 332.988281 733.636719 C 331.667969 733.058594 329.300781 731.882812 327.722656 731.027344 C 326.148438 730.171875 324.6875 729.511719 324.480469 729.5625 C 324.273438 729.609375 322.410156 729.117188 320.347656 728.46875 C 318.285156 727.820312 315.925781 727.449219 315.101562 727.636719 C 314.28125 727.828125 312.972656 727.542969 312.195312 727.003906 C 310.84375 726.0625 310.835938 725.917969 312.050781 723.695312 C 313.960938 720.191406 315.433594 714.765625 315.867188 709.613281 C 316.257812 705.035156 312.617188 702.296875 307.636719 703.417969 C 303.542969 704.339844 303.160156 705.070312 299.5 718.960938 C 297.230469 727.558594 296.871094 727.929688 286.6875 732.175781 C 282.222656 734.035156 280.292969 735.113281 276.703125 737.75 C 272.308594 740.980469 270.519531 742.261719 269.378906 743.003906 C 268.726562 743.429688 266.957031 744.777344 265.449219 746 C 263.9375 747.222656 262.453125 748.066406 262.144531 747.875 C 260.976562 747.148438 258.34375 732.527344 258.175781 725.832031 C 258.109375 723.164062 257.570312 718.535156 256.40625 710.648438 C 255.964844 707.636719 257.054688 706.007812 260.820312 704.054688 C 262.589844 703.136719 264.425781 702.070312 264.902344 701.6875 C 266.394531 700.484375 270.011719 698.46875 271.15625 698.203125 C 271.761719 698.0625 272.695312 697.542969 273.234375 697.050781 C 273.769531 696.558594 276.777344 694.617188 279.910156 692.738281 C 285.417969 689.4375 287.417969 688.105469 289.523438 686.335938 C 290.070312 685.875 290.902344 685.410156 291.375 685.300781 C 291.847656 685.191406 293.308594 684.234375 294.617188 683.179688 C 295.929688 682.121094 297.3125 681.1875 297.691406 681.097656 C 298.070312 681.007812 298.824219 680.550781 299.367188 680.082031 C 299.910156 679.609375 301.304688 678.523438 302.460938 677.667969 C 304.945312 675.828125 305.382812 674.988281 305.554688 671.75 C 305.722656 668.492188 303.777344 665.792969 300.742188 665.066406 C 297.667969 664.335938 295.847656 664.835938 294.21875 666.863281 C 293.480469 667.789062 292.59375 668.609375 292.25 668.691406 C 291.910156 668.769531 291.0625 669.542969 290.367188 670.40625 C 289.667969 671.273438 286.542969 673.554688 283.417969 675.476562 C 280.292969 677.398438 277.210938 679.347656 276.5625 679.804688 C 275.917969 680.261719 273.496094 681.761719 271.1875 683.140625 C 268.875 684.519531 265.875 686.488281 264.519531 687.515625 C 263.164062 688.542969 261.707031 689.460938 261.285156 689.5625 C 260.859375 689.660156 259.625 690.316406 258.539062 691.019531 C 257.003906 692.015625 256.355469 692.167969 255.609375 691.703125 C 254.859375 691.238281 254.78125 690.890625 255.246094 690.144531 C 255.574219 689.617188 255.621094 688.238281 255.355469 687.082031 C 255.085938 685.925781 255.113281 684.734375 255.421875 684.429688 C 255.726562 684.125 255.765625 682.96875 255.503906 681.855469 C 255.035156 679.839844 255.136719 675.996094 255.722656 673.601562 C 255.890625 672.910156 255.933594 671.929688 255.816406 671.421875 C 255.699219 670.917969 255.910156 669.246094 256.285156 667.714844 C 256.660156 666.183594 257.371094 662.835938 257.863281 660.277344 C 259.875 649.832031 259.480469 647.308594 255.5 645.171875 C 252.273438 643.445312 249.433594 643.820312 246.894531 646.3125 M 813.515625 529.652344 C 810.601562 531.15625 809.914062 532.355469 810.0625 535.6875 C 810.242188 539.847656 811.46875 541.101562 816.90625 542.699219 C 819.117188 543.347656 820.980469 544.125 821.050781 544.433594 C 821.121094 544.738281 822.328125 545.238281 823.734375 545.546875 C 826.65625 546.183594 830.5 549.015625 834.753906 553.675781 C 836.378906 555.453125 838.019531 557.011719 838.402344 557.140625 C 838.785156 557.269531 839.261719 558.074219 839.460938 558.929688 C 839.929688 560.9375 841.8125 563.414062 844.0625 564.972656 C 845.457031 565.9375 846.5 566.058594 848.839844 565.511719 C 852.246094 564.71875 853.3125 563.46875 853.691406 559.804688 C 854 556.777344 851.542969 552.324219 845.257812 544.535156 C 840.601562 538.761719 835.203125 534.824219 826.902344 531.140625 C 819.742188 527.964844 817.3125 527.695312 813.515625 529.652344 M 624.371094 604.136719 C 624.050781 604.773438 623.4375 605.375 623.007812 605.476562 C 622.113281 605.683594 621.472656 607.988281 621.511719 610.867188 C 621.53125 612.320312 622.113281 613.371094 623.773438 614.9375 C 625.003906 616.101562 626.042969 617.203125 626.085938 617.386719 C 626.128906 617.570312 627.503906 618.828125 629.144531 620.183594 C 632.011719 622.550781 634.871094 625.882812 636.605469 628.878906 C 638.546875 632.230469 643.089844 633.9375 647.011719 632.792969 C 650.671875 631.722656 651.246094 630.304688 650.066406 625.238281 C 649.238281 621.671875 648.59375 620.410156 646.277344 617.835938 C 641.476562 612.492188 639.390625 610.308594 636.789062 607.878906 C 635.402344 606.582031 634.207031 605.265625 634.132812 604.953125 C 634.058594 604.636719 632.976562 603.960938 631.722656 603.445312 C 628.800781 602.242188 625.148438 602.585938 624.371094 604.136719 M 601.921875 616.359375 C 599.1875 618.621094 598.46875 622.128906 600.058594 625.425781 C 600.71875 626.792969 601.542969 628.164062 601.894531 628.472656 C 602.644531 629.136719 604.390625 632.054688 606.578125 636.296875 C 607.441406 637.976562 608.464844 639.570312 608.84375 639.839844 C 609.226562 640.105469 609.664062 640.84375 609.808594 641.476562 C 610.363281 643.855469 614.847656 648.917969 617.433594 650.085938 C 620.4375 651.4375 621.636719 651.316406 623.832031 649.449219 C 626.394531 647.265625 627.085938 645.34375 626.464844 642.128906 C 625.933594 639.367188 622.25 633.035156 620.429688 631.746094 C 620.050781 631.476562 619.585938 630.601562 619.402344 629.800781 C 619.214844 629.003906 618.730469 628.238281 618.320312 628.097656 C 617.914062 627.960938 617.394531 627.058594 617.171875 626.09375 C 616.710938 624.105469 613.1875 618.484375 611.5625 617.140625 C 609.472656 615.414062 606.515625 614.144531 605.230469 614.417969 C 604.511719 614.574219 603.023438 615.445312 601.921875 616.359375 M 432.679688 662.679688 C 431.398438 665.195312 431.582031 669.050781 433.257812 674.878906 C 434.503906 679.210938 439.210938 703.933594 440.671875 713.832031 C 442.90625 728.960938 445.175781 750.550781 445.089844 755.871094 C 445.066406 757.382812 445.027344 760.773438 445.007812 763.410156 C 444.984375 766.046875 444.867188 768.84375 444.742188 769.625 C 444.617188 770.40625 444.535156 771.808594 444.5625 772.742188 C 444.589844 773.675781 444.542969 775.535156 444.460938 776.867188 C 444.378906 778.203125 444.28125 781.304688 444.242188 783.757812 C 444.167969 788.515625 444.085938 789.246094 443.050781 794.332031 C 442.683594 796.136719 442.464844 797.957031 442.5625 798.386719 C 442.660156 798.8125 442.597656 799.730469 442.414062 800.425781 C 442.234375 801.121094 441.332031 804.941406 440.410156 808.914062 C 439.488281 812.890625 438.5625 816.796875 438.351562 817.597656 C 436.285156 825.4375 436.402344 829.035156 438.761719 830.214844 C 440.195312 830.933594 444.613281 831.5 446.144531 831.15625 C 447.460938 830.863281 452.449219 823.277344 452.15625 822.011719 C 452.035156 821.492188 452.234375 819.8125 452.597656 818.28125 C 452.957031 816.753906 453.503906 813.597656 453.808594 811.269531 C 454.109375 808.945312 454.539062 806.707031 454.761719 806.296875 C 454.984375 805.890625 455.042969 805.027344 454.894531 804.386719 C 454.746094 803.746094 454.882812 803.160156 455.195312 803.085938 C 455.511719 803.011719 455.804688 802.40625 455.84375 801.738281 C 456.054688 798.261719 457.238281 789.878906 457.609375 789.230469 C 457.84375 788.816406 457.816406 787.535156 457.546875 786.378906 C 457.277344 785.222656 457.277344 784.058594 457.546875 783.789062 C 457.816406 783.523438 458.042969 782.605469 458.050781 781.753906 C 458.058594 780.898438 458.125 779.035156 458.195312 777.609375 C 458.265625 776.179688 458.375 773.847656 458.441406 772.421875 C 458.519531 770.75 458.601562 769.082031 458.6875 767.410156 C 458.984375 761.8125 458.914062 755.675781 458.484375 749 C 458.328125 746.589844 458.101562 742.953125 457.972656 740.914062 C 457.75 737.28125 456.988281 729.476562 456.273438 723.535156 C 456.078125 721.886719 455.585938 717.695312 455.179688 714.21875 C 454.777344 710.742188 453.703125 704.222656 452.792969 699.734375 C 450.191406 686.875 446.882812 667.777344 447.128906 667.046875 C 447.519531 665.890625 444.675781 662.027344 442.28125 660.464844 C 440.359375 659.210938 439.46875 659.078125 436.914062 659.671875 C 434.3125 660.277344 433.671875 660.734375 432.679688 662.679688 M 687.734375 605.554688 C 686.234375 606.539062 683.78125 612.667969 684.1875 614.410156 C 684.351562 615.125 684.238281 615.960938 683.933594 616.265625 C 683.628906 616.570312 683.546875 617.546875 683.757812 618.441406 C 683.964844 619.335938 683.972656 620.671875 683.773438 621.414062 C 682.722656 625.308594 688.703125 650.863281 691.402344 654 C 691.867188 654.542969 692.390625 655.582031 692.558594 656.304688 C 692.726562 657.027344 693.230469 658.066406 693.675781 658.617188 C 694.125 659.164062 695.382812 660.792969 696.46875 662.230469 C 697.796875 663.984375 699.148438 665.71875 700.515625 667.441406 C 701.65625 668.871094 702.65625 670.328125 702.742188 670.683594 C 702.824219 671.042969 704.421875 672.605469 706.292969 674.160156 L 709.691406 676.988281 L 708.347656 679.835938 C 706.148438 684.507812 702.902344 696.828125 702.804688 700.875 C 702.558594 711.441406 704.621094 719.140625 709.03125 724.113281 C 710.605469 725.894531 712.425781 727.589844 713.074219 727.886719 C 713.722656 728.183594 715.621094 729.203125 717.289062 730.15625 C 718.957031 731.109375 720.570312 731.828125 720.875 731.757812 C 721.179688 731.683594 722.753906 731.925781 724.371094 732.289062 C 730.34375 733.636719 736.476562 732.859375 743.457031 729.871094 C 752.386719 726.050781 754.109375 725.242188 755.042969 724.4375 C 755.585938 723.96875 756.691406 723.421875 757.496094 723.226562 C 759.070312 722.839844 766.789062 718.210938 767.347656 717.316406 C 767.53125 717.015625 768.144531 716.65625 768.707031 716.515625 C 769.269531 716.371094 771.269531 714.984375 773.15625 713.429688 C 775.042969 711.875 776.828125 710.546875 777.132812 710.476562 C 777.433594 710.40625 778.710938 709.242188 779.964844 707.890625 C 781.222656 706.535156 783.183594 704.800781 784.320312 704.035156 C 788.433594 701.253906 790.96875 695.609375 789.492188 692.511719 C 788.539062 690.507812 785.15625 688.492188 782.375 688.265625 C 780.597656 688.125 780.105469 688.386719 779.03125 690.066406 C 776.5 694.015625 765.398438 703.296875 758.417969 707.300781 C 756.925781 708.15625 755.484375 709.164062 755.210938 709.539062 C 754.941406 709.910156 754.066406 710.367188 753.265625 710.554688 C 752.46875 710.742188 751.703125 711.226562 751.5625 711.632812 C 751.425781 712.042969 750.472656 712.570312 749.449219 712.808594 C 748.421875 713.046875 746.847656 713.734375 745.953125 714.339844 C 743.613281 715.910156 729.253906 719.316406 728.070312 718.582031 C 727.554688 718.257812 726.660156 718.105469 726.082031 718.242188 C 725.503906 718.375 723.570312 717.722656 721.78125 716.792969 L 718.53125 715.105469 L 717.109375 708.984375 C 716.324219 705.617188 715.871094 702.132812 716.097656 701.238281 C 716.933594 697.957031 717.078125 697.09375 716.917969 696.40625 C 716.726562 695.578125 719.269531 688.824219 719.957031 688.332031 C 720.21875 688.144531 720.367188 687.707031 720.285156 687.355469 C 720.101562 686.570312 722.679688 679.8125 723.339844 679.34375 C 723.597656 679.15625 723.75 678.734375 723.671875 678.402344 C 723.316406 676.875 740.011719 649.835938 745.855469 642.472656 C 750.421875 636.722656 754.042969 632.441406 754.410156 632.355469 C 754.652344 632.300781 755.59375 631.019531 756.503906 629.511719 C 759.816406 624.007812 756.070312 617.890625 750.304688 619.390625 C 748.898438 619.753906 747.125 620.828125 746.203125 621.867188 C 745.3125 622.875 744.398438 623.746094 744.171875 623.796875 C 743.589844 623.933594 738.09375 630.433594 735.207031 634.402344 C 733.082031 637.308594 730.941406 640.207031 728.792969 643.097656 C 726.59375 646.050781 722.628906 651.742188 719.984375 655.738281 C 717.339844 659.738281 714.980469 663.03125 714.742188 663.058594 C 714.5 663.085938 713.421875 662.292969 712.34375 661.292969 C 710.359375 659.449219 708.542969 656.539062 706.570312 652.023438 C 705.972656 650.65625 704.621094 647.957031 703.570312 646.019531 C 702.359375 643.796875 701.058594 639.9375 700.03125 635.527344 C 699.066406 631.371094 698.0625 628.335938 697.542969 628.015625 C 696.917969 627.625 696.84375 627.304688 697.277344 626.875 C 697.609375 626.542969 697.695312 625.476562 697.46875 624.503906 C 697.242188 623.527344 697.375 621.453125 697.765625 619.886719 C 698.152344 618.320312 698.363281 616.578125 698.230469 616.011719 C 698.097656 615.445312 698.179688 614.644531 698.410156 614.234375 C 698.644531 613.824219 698.742188 612.335938 698.632812 610.929688 C 698.457031 608.6875 698.085938 608.132812 695.609375 606.410156 C 692.710938 604.394531 689.945312 604.09375 687.734375 605.554688 M 542.21875 643.324219 C 540.425781 645.011719 539.167969 648.941406 539.660156 651.300781 C 539.824219 652.085938 539.710938 652.976562 539.40625 653.28125 C 539.101562 653.582031 539.035156 654.632812 539.261719 655.609375 C 539.492188 656.589844 539.5 657.71875 539.285156 658.128906 C 539.066406 658.535156 538.824219 660.269531 538.742188 661.980469 C 538.65625 663.691406 538.484375 665.824219 538.355469 666.714844 C 538.226562 667.609375 538.257812 668.929688 538.425781 669.648438 C 538.699219 670.835938 538.300781 677.660156 537.699219 682.046875 C 537.269531 685.164062 536.523438 687.4375 535.734375 688.027344 C 535.3125 688.34375 533.890625 689.519531 532.574219 690.640625 C 531.253906 691.765625 529.773438 692.777344 529.277344 692.890625 C 528.261719 693.128906 517.890625 701.785156 515.746094 704.1875 C 514.976562 705.050781 513.214844 706.703125 511.832031 707.859375 C 510.449219 709.015625 509.054688 710.296875 508.734375 710.703125 C 504.972656 715.449219 505.070312 715.144531 505.984375 719.433594 C 506.792969 723.238281 507.015625 723.601562 509.164062 724.628906 C 510.433594 725.238281 512.199219 725.566406 513.09375 725.359375 C 514.492188 725.035156 522.113281 717.304688 527.023438 711.230469 C 527.804688 710.257812 529.183594 708.914062 530.085938 708.242188 C 530.992188 707.566406 532.414062 706.277344 533.25 705.375 C 534.996094 703.492188 536.089844 703.742188 535.363281 705.855469 C 535.09375 706.648438 534.941406 707.597656 535.023438 707.960938 C 535.109375 708.328125 534.886719 710.152344 534.53125 712.015625 C 534.175781 713.878906 533.785156 716.042969 533.667969 716.824219 C 533.546875 717.605469 533.160156 719.769531 532.800781 721.632812 C 532.445312 723.496094 532.21875 725.289062 532.292969 725.617188 C 532.371094 725.945312 532.101562 727.625 531.695312 729.351562 C 531.292969 731.078125 530.867188 733.207031 530.746094 734.082031 C 530.484375 736 530.300781 737.203125 529.148438 744.535156 C 527.917969 752.359375 527.867188 752.742188 527.660156 755.335938 C 527.5625 756.597656 527.109375 758.550781 526.660156 759.671875 C 525.582031 762.351562 525.917969 772.425781 527.179688 775.296875 C 528.265625 777.769531 530.050781 779.199219 532.980469 779.949219 C 538.371094 781.324219 540.382812 778.015625 540.191406 768.085938 C 540.148438 765.917969 540.320312 763.9375 540.574219 763.683594 C 540.828125 763.433594 540.851562 762.425781 540.621094 761.449219 C 540.394531 760.472656 540.386719 759.335938 540.601562 758.929688 C 540.816406 758.523438 541.066406 756.789062 541.152344 755.078125 C 541.328125 751.5625 541.648438 749.261719 542.332031 746.558594 C 542.589844 745.539062 543.023438 742.207031 543.292969 739.160156 C 543.5625 736.109375 544.054688 732.320312 544.382812 730.742188 C 545.761719 724.128906 546.269531 721.039062 546.105469 720.265625 C 546.007812 719.8125 546.328125 718.582031 546.820312 717.527344 C 547.308594 716.472656 547.578125 715.011719 547.417969 714.277344 C 547.253906 713.542969 547.304688 712.609375 547.527344 712.203125 C 547.75 711.792969 548.1875 709.550781 548.496094 707.222656 C 549.996094 696.0625 550.367188 695.296875 554.449219 694.972656 C 556.097656 694.839844 558.296875 694.953125 559.339844 695.222656 C 560.378906 695.492188 561.671875 695.613281 562.207031 695.492188 C 562.742188 695.371094 564.261719 695.628906 565.585938 696.066406 L 567.992188 696.863281 L 569.796875 704.617188 C 570.835938 709.085938 571.363281 712.605469 571.042969 712.921875 C 570.738281 713.226562 570.722656 714.488281 571.011719 715.730469 C 571.597656 718.246094 571.226562 725.773438 570.300781 730.183594 C 569.96875 731.765625 569.078125 735.820312 568.320312 739.191406 C 567.5625 742.5625 567.015625 745.636719 567.109375 746.019531 C 567.203125 746.402344 566.695312 747.585938 565.988281 748.648438 C 564.414062 751.007812 563.054688 750.742188 560.289062 747.535156 C 559.261719 746.34375 556.933594 744.332031 555.121094 743.070312 C 552.046875 740.929688 551.726562 740.855469 550.421875 741.96875 C 547.269531 744.65625 546.671875 746.304688 547.523438 749.964844 C 547.964844 751.867188 548.703125 753.875 549.164062 754.421875 C 550.15625 755.601562 551.613281 757.574219 553.578125 760.390625 C 555.542969 763.214844 563.117188 768.808594 565.863281 769.464844 C 567.101562 769.761719 569.378906 769.707031 570.925781 769.347656 C 573.472656 768.757812 573.828125 768.429688 574.710938 765.894531 C 575.246094 764.355469 576.070312 762.585938 576.539062 761.96875 C 577.011719 761.347656 577.347656 760.621094 577.28125 760.351562 C 577.128906 759.679688 579.753906 751.667969 580.667969 750.019531 C 581.074219 749.285156 581.289062 748.179688 581.144531 747.558594 C 581 746.9375 581.410156 745.019531 582.058594 743.296875 C 582.703125 741.578125 583.382812 739.363281 583.570312 738.378906 C 583.964844 736.320312 584.828125 724.171875 584.910156 719.609375 C 584.9375 717.914062 585.035156 715.492188 585.121094 714.234375 C 585.324219 711.332031 580.59375 692.3125 579.066406 689.898438 C 576.300781 685.523438 569.757812 680.824219 565.636719 680.253906 C 563.71875 679.988281 555.824219 680.539062 552.648438 681.164062 C 551.042969 681.476562 550.957031 681.371094 551.132812 679.335938 C 551.328125 677.011719 551.621094 674.699219 552 672.398438 C 552.144531 671.519531 552.238281 670.039062 552.207031 669.105469 C 552.089844 665.554688 552.480469 659.039062 552.945312 656.773438 C 553.53125 653.914062 553.746094 647.339844 553.316406 645.480469 C 553.144531 644.738281 551.730469 643.386719 550.175781 642.484375 C 546.988281 640.625 544.84375 640.851562 542.21875 643.324219 M 859.324219 573.792969 C 855.328125 575.445312 849.324219 578.800781 848.765625 579.695312 C 848.503906 580.109375 847.695312 580.601562 846.96875 580.78125 C 846.238281 580.960938 844.234375 582.320312 842.507812 583.796875 C 832.695312 592.210938 830.207031 594.449219 828.074219 596.789062 C 826.777344 598.210938 825.550781 599.410156 825.351562 599.457031 C 825.152344 599.503906 823.53125 601.34375 821.746094 603.542969 C 819.960938 605.742188 817.722656 608.382812 816.777344 609.40625 C 815.828125 610.429688 814.40625 612.375 813.617188 613.730469 C 812.828125 615.082031 811.839844 616.269531 811.417969 616.367188 C 810.996094 616.464844 808.691406 619.886719 806.296875 623.96875 C 800.113281 634.515625 800.234375 638.082031 806.871094 640.519531 C 811.753906 642.3125 812.691406 641.578125 819.421875 630.734375 C 822.769531 625.347656 826.667969 619.59375 828.089844 617.953125 C 829.511719 616.3125 831.835938 613.445312 833.261719 611.585938 C 834.683594 609.726562 836.558594 607.597656 837.429688 606.855469 C 838.296875 606.117188 840.03125 604.429688 841.285156 603.101562 C 842.535156 601.777344 843.878906 600.621094 844.273438 600.527344 C 844.667969 600.4375 844.921875 600.070312 844.839844 599.710938 C 844.757812 599.355469 844.972656 598.996094 845.320312 598.917969 C 845.664062 598.835938 847.324219 597.710938 849.007812 596.414062 C 856.792969 590.417969 868.109375 584.585938 869.855469 585.671875 C 870.308594 585.953125 871.441406 586.007812 872.367188 585.792969 C 874.136719 585.382812 878.789062 587.957031 881.011719 590.578125 C 882.609375 592.457031 885.621094 602.871094 885.160156 604.902344 C 884.816406 606.410156 884.960938 608.652344 885.921875 616.664062 C 886.152344 618.59375 886.121094 620.386719 885.855469 620.652344 C 885.585938 620.917969 885.589844 622.082031 885.855469 623.238281 C 886.125 624.394531 886.167969 625.671875 885.953125 626.078125 C 885.738281 626.488281 885.46875 628.226562 885.359375 629.945312 C 885.25 631.660156 885.015625 633.40625 884.839844 633.824219 C 884.660156 634.242188 884.566406 635.792969 884.632812 637.269531 C 884.699219 638.75 884.429688 641.734375 884.039062 643.902344 C 883.648438 646.074219 883.234375 648.484375 883.121094 649.265625 C 882.011719 656.777344 876.78125 677.667969 875.21875 680.824219 C 874.488281 682.300781 873.957031 683.808594 874.035156 684.175781 C 874.117188 684.539062 873.363281 686.566406 872.359375 688.683594 C 871.351562 690.796875 870.605469 692.867188 870.699219 693.285156 C 870.792969 693.703125 869.835938 695.925781 868.578125 698.222656 C 867.316406 700.519531 865.710938 703.722656 865.007812 705.339844 C 858.644531 720.003906 843.109375 745.878906 834.902344 755.480469 C 832.316406 758.5 830.03125 761.105469 829.816406 761.265625 C 829.605469 761.421875 829 762.625 828.46875 763.933594 C 827.144531 767.214844 827.910156 769.941406 830.636719 771.667969 C 832.457031 772.824219 833.371094 772.933594 835.894531 772.308594 C 837.75 771.847656 839.308594 771.027344 839.867188 770.222656 C 840.371094 769.496094 841.382812 768.503906 842.113281 768.023438 C 845.398438 765.859375 863.917969 737.492188 870.203125 724.996094 C 871.746094 721.925781 873.902344 717.796875 875 715.816406 C 877.433594 711.410156 885.644531 692.90625 885.480469 692.195312 C 885.414062 691.914062 885.820312 691.019531 886.382812 690.207031 C 886.949219 689.394531 887.339844 688.425781 887.253906 688.054688 C 887.164062 687.683594 887.632812 686.472656 888.285156 685.359375 C 888.941406 684.246094 890.355469 679.863281 891.429688 675.621094 C 892.503906 671.378906 893.558594 667.285156 893.769531 666.53125 C 894.613281 663.535156 897.535156 649.941406 897.429688 649.496094 C 897.371094 649.238281 897.59375 647.65625 897.925781 645.984375 C 898.257812 644.316406 898.714844 640.90625 898.941406 638.40625 C 899.167969 635.910156 899.453125 633.230469 899.570312 632.449219 C 900.03125 629.410156 900.171875 626 899.886719 624.773438 C 899.722656 624.070312 899.792969 623.152344 900.046875 622.734375 C 900.554688 621.890625 900.097656 608.054688 899.46875 605.339844 C 899.246094 604.378906 899.316406 603.347656 899.621094 603.042969 C 900.363281 602.308594 898.082031 592.664062 896.421875 589.511719 C 893.296875 583.582031 892.433594 582.117188 891.796875 581.652344 C 891.421875 581.382812 891.03125 580.789062 890.921875 580.332031 C 890.816406 579.875 889.335938 578.140625 887.636719 576.480469 C 880.808594 569.816406 871.160156 568.902344 859.324219 573.792969 M 383.804688 688.242188 C 381.039062 689.660156 379.703125 692.035156 380.035156 694.9375 C 380.210938 696.496094 380.265625 699.023438 380.152344 700.554688 C 379.90625 703.890625 380.492188 708.675781 383.113281 724.820312 C 385.378906 738.785156 390.652344 754.628906 394.488281 759 C 395.476562 760.125 396.363281 761.339844 396.457031 761.699219 C 396.808594 763.019531 399.882812 764.765625 402.042969 764.878906 C 406.710938 765.113281 410.613281 761.097656 409.738281 756.957031 C 409.46875 755.679688 409.597656 753.628906 410.027344 752.402344 C 410.527344 750.9375 410.996094 749.460938 411.425781 747.976562 C 411.765625 746.765625 412.75 744.332031 413.609375 742.566406 C 414.464844 740.800781 415.03125 738.765625 414.863281 738.042969 C 414.695312 737.320312 414.808594 736.484375 415.113281 736.179688 C 415.902344 735.398438 415.101562 732.476562 413.910156 731.796875 C 413.359375 731.480469 411.824219 730.90625 410.492188 730.523438 L 408.074219 729.820312 L 405.644531 734.042969 C 404.3125 736.363281 402.972656 739.164062 402.679688 740.265625 C 402.382812 741.371094 401.855469 742.335938 401.507812 742.417969 C 400.050781 742.757812 394.097656 714.800781 394.1875 708.058594 C 394.234375 704.652344 394.285156 701.214844 394.359375 696.910156 C 394.492188 689.3125 389.582031 685.28125 383.804688 688.242188 M 585.941406 661.5625 C 580.75 666.238281 581.875 669.367188 591.46875 676.957031 C 594.53125 679.378906 597.613281 682.046875 598.320312 682.882812 C 599.023438 683.722656 601.121094 685.625 602.976562 687.113281 C 604.832031 688.605469 608.484375 691.71875 611.089844 694.042969 C 613.699219 696.363281 617.429688 699.515625 619.386719 701.050781 C 621.339844 702.585938 623 704.109375 623.078125 704.433594 C 623.152344 704.757812 623.921875 705.417969 624.785156 705.898438 C 625.648438 706.378906 626.445312 707.164062 626.558594 707.640625 C 626.667969 708.121094 627.050781 708.445312 627.410156 708.363281 C 627.765625 708.28125 628.148438 708.613281 628.265625 709.101562 C 628.378906 709.59375 630.414062 711.855469 632.785156 714.128906 C 639.421875 720.484375 645.039062 722.125 649.121094 718.894531 C 650.527344 717.777344 651.40625 714.542969 650.894531 712.34375 C 650.542969 710.828125 646.894531 706.191406 645.511719 705.496094 C 644.128906 704.804688 636.816406 698.835938 636.691406 698.300781 C 636.644531 698.105469 634.957031 696.460938 632.9375 694.648438 C 630.917969 692.835938 628.863281 690.953125 628.375 690.464844 C 627.886719 689.976562 627.097656 689.351562 626.625 689.078125 C 624.941406 688.097656 617.828125 681.851562 617.679688 681.222656 C 617.636719 681.042969 617.539062 680.90625 617.382812 680.8125 C 617.226562 680.714844 617.0625 680.6875 616.882812 680.730469 C 616.527344 680.8125 616.140625 680.476562 616.027344 679.984375 C 615.910156 679.492188 614.785156 678.449219 613.519531 677.664062 C 612.257812 676.878906 609.660156 674.804688 607.746094 673.058594 C 604.183594 669.800781 598.277344 665.050781 593.363281 661.496094 C 590.410156 659.359375 588.363281 659.378906 585.941406 661.5625 M 287.78125 745.714844 C 286.792969 746.320312 285.460938 747.199219 284.820312 747.667969 C 284.175781 748.140625 282.5625 749.136719 281.230469 749.882812 C 279.898438 750.625 277.703125 752.078125 276.351562 753.113281 C 274.996094 754.148438 273.601562 755.058594 273.253906 755.140625 C 272.902344 755.222656 271.714844 756.113281 270.609375 757.125 C 269.503906 758.132812 268.234375 759.042969 267.785156 759.148438 C 267.335938 759.25 266.167969 760.398438 265.1875 761.699219 L 263.402344 764.058594 L 267.839844 779.382812 C 270.277344 787.8125 272.269531 795.125 272.265625 795.632812 C 272.261719 796.144531 272.574219 796.601562 272.960938 796.648438 C 273.605469 796.730469 274.335938 795 275.71875 790.117188 C 276.003906 789.109375 276.625 787.582031 277.097656 786.71875 C 278.667969 783.871094 288.171875 757.691406 287.964844 756.792969 C 287.933594 756.65625 288.714844 754.738281 289.703125 752.527344 C 290.695312 750.316406 291.425781 748.175781 291.335938 747.773438 C 291.242188 747.371094 291.519531 746.578125 291.953125 746.007812 C 293.761719 743.628906 291.464844 743.46875 287.78125 745.714844 M 246.574219 781.679688 C 244.207031 784.769531 241.753906 787.773438 241.125 788.355469 C 237.335938 791.875 221.171875 821.085938 219.523438 827.394531 C 216.933594 837.320312 216.03125 841.402344 216.234375 842.285156 C 216.363281 842.847656 216.316406 843.558594 216.128906 843.859375 C 215.132812 845.460938 215.304688 850.136719 216.53125 854.804688 C 218.140625 860.921875 219.410156 863.0625 222.089844 864.167969 C 224.039062 864.972656 224.125 864.953125 226.296875 863.148438 C 227.894531 861.835938 229.519531 860.550781 231.164062 859.296875 C 232.621094 858.191406 234.304688 856.558594 234.90625 855.664062 C 235.507812 854.769531 236.152344 854.003906 236.34375 853.960938 C 237.882812 853.601562 250.742188 835.550781 260.746094 819.707031 C 263.671875 815.070312 264.300781 813.574219 263.761719 812.511719 C 263.386719 811.773438 262.578125 809.75 261.960938 808.011719 C 261.246094 806.011719 260.511719 804.015625 259.753906 802.03125 C 259.160156 800.476562 257.304688 793.910156 255.632812 787.4375 C 253.261719 778.257812 252.40625 775.710938 251.738281 775.867188 C 251.265625 775.976562 248.941406 778.59375 246.574219 781.679688 " fill-opacity="1" fill-rule="evenodd"/></g></g></g></svg>